<?xml version="1.0" encoding="UTF-8"?>
<svg id="Layer_1" data-name="Layer 1" xmlns="http://www.w3.org/2000/svg" viewBox="0 0 300 300">
  <defs>
    <style>
      .cls-1 {
        fill: #fff;
      }

      .cls-1, .cls-2, .cls-3 {
        fill-rule: evenodd;
      }

      .cls-2 {
        fill: #109bd6;
      }
    </style>
  </defs>
  <path class="cls-1" d="m25,25h250v250H25V25Z"/>
  <path class="cls-2" d="m111.82,38.14s9.6-1.72,17.95-1.72c12.68,0,19.02,1.72,21.2,1.72h37.47c-11.49-6.04-24.54-9.46-38.42-9.46s-26.72,3.45-38.19,9.46Zm95.97,14.19h-27.96c-10.84,0-34.04-1.89-43.56-1.89h-26.2c-6.01,0-17.95,1.89-17.95,1.89,3.53-3.46,6.43-5.9,8.44-7.23,0,0,7.34,1.51,13.86,1.51,4.17,0,23.2-.01,23.2-.01,8.68,0,28.04-3.68,34.55-3.68h24.27c4.12,2.78,7.82,5.95,11.37,9.41h0Zm11.77,14.19h-35.23c-7.34,0-30.2-2.39-38.72-2.39h-46.73c-6.01,0-18.39,2.39-18.39,2.39,2.15-3.32,3.29-4.77,5.88-7.73,0,0,7.01,1.17,13.52,1.17h45.73c11.02,0,29.21-2.86,36.05-2.86h30.77c2.6,2.97,4.98,6.11,7.12,9.42h0Zm-146.42,14.02c1.3-3.25,2.8-4.87,4.48-7.9,0,0,9.08,1.67,14.93,1.67h62.25c7.35,0,27.04-3.19,32.05-3.19h35.59c1.69,3.05,3.18,6.19,4.47,9.43h-38.06c-6.84,0-24.2-2.23-33.71-2.23h-63.26c-7.34,0-18.73,2.22-18.73,2.22h0Zm-4.27,14.36s14.32-2.73,19.66-2.73h66.43c6.01,0,30.87,2.73,38.56,2.73h37.61c-.65-3.19-1.48-6.33-2.5-9.42h-36.78c-8.35,0-29.88,2.18-37.23,2.18h-65.59c-6.68,0-17.65-2.19-17.65-2.19-1.03,3.09-1.87,6.23-2.52,9.42h0Zm-1.64,14.19s17.13-3.06,22.47-3.06h61.42c9.34,0,34.88,3.06,42.56,3.06h39.03c-.09-3.15-.35-6.3-.8-9.42h-39.89c-7.85,0-30.38,2.02-40.9,2.02h-59.92c-8.51,0-23.18-2.02-23.18-2.02-.44,3.12-.71,6.27-.8,9.43h0Zm0,4.77s24.98,2.18,32.32,2.18h43.57c10.34,0,37.72-2.18,44.9-2.18h44.74c-.09,3.16-.36,6.3-.81,9.43h-43.94c-8.68,0-34.71-3.24-45.23-3.24h-42.38c-7.68,0-32.32,3.23-32.32,3.23-.44-3.09-.75-6.23-.84-9.42h0Zm4.17,23.61c-1.03-3.09-1.86-6.25-2.51-9.44,0,0,30.25,2.42,51.19,2.42,22.76,0,43.29-2.41,52.57-2.41h58.48c-.65,3.19-1.5,6.34-2.52,9.43h-56.24c-16.41,0-33.17-2.46-54.12-2.46s-46.85,2.46-46.85,2.46h0Zm155.48,4.77c-1.3,3.23-2.79,6.37-4.49,9.4H77.66c-1.68-3-3.23-6.17-4.53-9.41h153.77Zm-7.33,14.19H80.5c2.15,3.31,4.53,6.45,7.12,9.42h124.81c2.59-2.97,4.98-6.12,7.13-9.42Zm-23.07,23.61h-92.86c-4.12-2.79-7.97-5.94-11.52-9.42h115.84c-3.55,3.47-7.34,6.63-11.45,9.42h0Zm-7.99,4.75c-11.5,6.05-24.59,9.47-38.48,9.47-13.37.01-26.55-3.23-38.39-9.45l76.87-.02h0Z"/>
  <path class="cls-3" d="m109.73,207.59h49.72v13.41h-16.33v49.63h-17.06v-49.63h-16.33v-13.41h0Zm-22.43,38.94l6.1-19.23,5.37,19.23h-11.47,0Zm-24.71,24.09l22.02-63.03h17.68l20.78,63.03h-17.27l-3.52-11.17h-18.71l-4.13,11.17h-16.85Zm125.09-63.03h49.72v13.41h-16.33v49.63h-17.06v-49.63h-16.33v-13.41h0Z"/>
  <path class="cls-3" d="m166.55,251.43s9.21,7.21,10.43,8.49c-2.39,0-8.16.63-9.57-1.22-2.27-2.64-1.72-6.32-.86-7.27Zm4.66-21.83c1.54,0,3.05,1.47,3.05,2.53v7.66l12.02-.03v10.4c0,.5-.22.5-.71.5-.8,0-13.9-11.23-16.02-13.81-1.04-1.28-1.48-2.68-1.48-4.36,0-1.48,1.48-2.88,3.13-2.88h0Zm.55-9.82c4.57,0,8.29.72,11.17,3.06,2.64,2.15,3.41,5.53,3.41,9.48v7.43l12.2-.03v15.59c0,1.32-.88,3.8-.88,3.8,0,0,2.17.04,3.54,0v11.03c-.86,0-1.35.02-2.21.02-2.78,0-4.75.2-6.98-1.41-.68-.49-1.21-.97-1.95-.97-.67,0-1.1.6-1.94.97-2.92,1.35-4.75,2.01-7.96,2.3-3.56.33-5.61.31-9.19.18-8.99-.35-16.93-4.64-18.74-13.44-.53-2.63-.57-4.26,0-6.89.55-2.56.97-4.2,2.65-6.19.95-1.13,2.47-1.85,2.47-2.92,0-.53-1.04-1.28-1.41-2.21-.97-2.32-1.24-3.84-1.24-6.36,0-3.56.31-6.14,2.83-8.66,4.16-4.16,8.38-4.77,14.23-4.77h0Z"/>
</svg>