<?xml version="1.0" encoding="UTF-8"?>
<svg id="Layer_1" data-name="Layer 1" xmlns="http://www.w3.org/2000/svg" viewBox="0 0 300 300">
  <defs>
    <style>
      .cls-1 {
        fill: #fff;
      }

      .cls-1, .cls-2 {
        fill-rule: evenodd;
      }

      .cls-2 {
        fill: #c47456;
      }
    </style>
  </defs>
  <path class="cls-1" d="m25,25h250v250H25V25Z"/>
  <path class="cls-2" d="m42.8,220.07c0-5.39,1.08-8.23,2.84-13.13,1.27-2.64.49-1.17,4.11-8.23l58.48-104.42,8.72-15.18c7.25-12.44,13.81-17.83,22.82-20.37.82-.22,1.64-.42,2.45-.59h14.45c3.74.78,7.14,2.13,10.03,3.82,5.49,3.23,10.48,9.11,13.91,15.28,1.17,1.86,1.08,1.37,5.48,9.31l64.36,112.84c5.29,9.21,8.62,17.24,5.58,28.8-4.8,16.45-17.73,24.1-34.97,25.17-4.9.49-3.72.2-7.64.39-25.37,0-114.31.09-126.85,0-8.52-.1-3.63-.1-7.05-.2-24.39-.1-36.73-17.63-36.73-33.5h0Zm75.23-34.97l46.63-81.99c3.52-6.76,4.02-11.75,2.74-16.26-2.94-9.99-13.23-16.06-23.71-12.83-4.51,1.27-8.13,4.02-11.95,10.77l-57.3,102.07c4.01-1.37,8.03-1.86,11.36-1.96h1.76l53.97-95.5c1.96-3.33,3.43-4.51,5.39-5.19,4.99-1.47,9.11,1.37,10.28,5.58.49,2.16,0,4.5-1.57,7.44l-50.05,87.86h12.44Zm18.22.1h27.43l-13.91-24-13.52,24h0Zm22.53-39.58l46.14,80.71c3.13,5.09,6.27,9.01,11.95,10.88,10.19,3.23,21.16-3.14,23.61-13.42,1.47-6.37-.34-10.9-2.84-15.28l-58.97-103.24c-.69,5.58-2.84,9.7-4.51,13.42l54.27,95.02c1.96,3.52,2.35,5.68,1.76,7.73-1.08,4.31-5.97,6.96-9.89,5.59-1.96-.59-3.52-1.96-5.88-5.88l-49.37-86.5-6.27,10.97h0Zm37.32,92.47c-4.8-4.01-6.37-6.86-8.82-10.77h-109.61c-2.06,0-4.31-.59-5.88-2.16-3.23-3.03-3.43-8.13-.3-11.26,1.57-1.48,4.21-2.36,6.17-2.36h100.6l-6.27-10.88h-93.25c-6.07.1-11.07,2.16-14.69,5.69-7.44,7.24-7.44,19.2.78,26.93,5,4.12,9.01,4.5,14.79,4.8h116.47s0,0,0,0Z"/>
</svg>