<?xml version="1.0" encoding="UTF-8"?>
<svg id="Layer_1" data-name="Layer 1" xmlns="http://www.w3.org/2000/svg" viewBox="0 0 300 300">
  <defs>
    <style>
      .cls-1 {
        fill: #fff;
      }
    </style>
  </defs>
  <path d="m150,275c69.12-.1,125.05-56.02,125-125,.04-68.99-55.89-124.92-125-125-68.85.08-124.78,56.01-125,125,.22,68.98,56.14,124.9,125,125Z"/>
  <path class="cls-1" d="m150,248.3c54.46.07,98.5-43.98,98.3-98.3.2-54.34-43.84-98.38-98.3-98.3-54.2-.08-98.23,43.96-98.29,98.3.06,54.32,44.1,98.36,98.29,98.3Z"/>
  <path d="m166.48,86.36v-15.91h-30.68v15.91c-16.29-.12-36.82,1.55-36.93,26.7-2.11,23,2.44,46.64-22.73,49.43v36.93h59.66v17.61h30.68v-17.61h58.52v-36.93c-23.38-2.57-18.27-24.32-21.02-49.43-.14-24.82-20.56-26.6-37.5-26.7h0Z"/>
  <path class="cls-1" d="m107.38,169.89v5.11h87.5v-5.11c-15.02-1.08-14.13-28.15-14.77-40.91-.47-11.88-3.13-17.43-11.36-17.61-11.52.18-34.66,0-34.66,0-8.82.18-10.67,6.4-11.36,17.61-.56,12.76.33,39.61-15.34,40.91h0Z"/>
</svg>