<svg xmlns="http://www.w3.org/2000/svg" viewBox="0 0 1440 600" xmlns:v="https://vecta.io/nano"><path d="M0 0h1440v600H0z" fill="#171717"/><g fill="#745622"><path d="M1003.39 0h136.08v212.66h-136.08z"/><path d="M1020.857 73.737l118.639 140.788-162.62 137.036-118.639-140.788z"/><path d="M858.09 209.54h140.09v224.74H858.09z"/><path d="M810.62 377.61h197.93v119.04H810.62zm-57.46 120.91l-59.83-13.47 40.18-100.35 59.82 13.47-40.17 100.35z"/><path d="M823.36 600l-46.28-12.85 53.73-165.49 46.27 12.85L823.36 600zm95.61-1.18l-44.04 1.02-12.06-118.56 44.04-1.02 12.06 118.56zm-.029-152.406l47.962-5.872 19.094 155.956-47.962 5.872z"/><path d="M739.08 441.61l-3.42-57.13 146.49-21.75 3.42 57.14-146.49 21.74zm236.466-56.928l36.95-31.137 88.224 104.695-36.95 31.137z"/><path d="M1075.527 428.213l31.137 36.95L983.67 568.807l-31.137-36.95z"/><path d="M947.72 493.37h55.67v27.76h-55.67zm-144.408-81.996l35.873 42.571-21.228 17.888-35.873-42.571zm186.241-85.267l35.873 42.571-21.228 17.888-35.873-42.571z"/></g></svg>