<?xml version="1.0" encoding="UTF-8"?>
<svg id="Layer_1" data-name="Layer 1" xmlns="http://www.w3.org/2000/svg" viewBox="0 0 1440 600">
  <defs>
    <style>
      .cls-1 {
        fill: #745622;
      }

      .cls-2 {
        fill: #171717;
      }
    </style>
  </defs>
  <rect class="cls-2" width="1440" height="600"/>
  <rect class="cls-1" x="1003.39" width="136.08" height="212.66"/>
  <rect class="cls-1" x="906.79" y="106.33" width="184.11" height="212.66" transform="translate(517.84 -688.2) rotate(49.88)"/>
  <rect class="cls-1" x="858.09" y="209.54" width="140.09" height="224.74"/>
  <rect class="cls-1" x="810.62" y="377.61" width="197.93" height="119.04"/>
  <polygon class="cls-1" points="753.16 498.52 693.33 485.05 733.51 384.7 793.33 398.17 753.16 498.52"/>
  <polygon class="cls-1" points="823.36 600 777.08 587.15 830.81 421.66 877.08 434.51 823.36 600"/>
  <polygon class="cls-1" points="918.97 598.82 874.93 599.84 862.87 481.28 906.91 480.26 918.97 598.82"/>
  <rect class="cls-1" x="928.34" y="442.81" width="48.32" height="157.12" transform="translate(-56.33 119.7) rotate(-6.98)"/>
  <polygon class="cls-1" points="739.08 441.61 735.66 384.48 882.15 362.73 885.57 419.87 739.08 441.61"/>
  <rect class="cls-1" x="1013.98" y="353.03" width="48.32" height="136.91" transform="translate(-27.33 768.12) rotate(-40.12)"/>
  <rect class="cls-1" x="1005.41" y="418.1" width="48.32" height="160.84" transform="translate(747.37 -610.04) rotate(49.88)"/>
  <rect class="cls-1" x="947.72" y="493.37" width="55.67" height="27.76"/>
  <rect class="cls-1" x="782.78" y="427.73" width="55.67" height="27.76" transform="translate(625.98 -462.84) rotate(49.88)"/>
  <rect class="cls-1" x="969.01" y="342.46" width="55.67" height="27.76" transform="translate(627.01 -635.57) rotate(49.88)"/>
</svg>