<?xml version="1.0" encoding="UTF-8"?>
<svg id="Layer_1" data-name="Layer 1" xmlns="http://www.w3.org/2000/svg" viewBox="0 0 300 300">
  <defs>
    <style>
      .cls-1 {
        fill: #fff;
      }

      .cls-1, .cls-2 {
        fill-rule: evenodd;
      }
    </style>
  </defs>
  <path class="cls-1" d="m24.82,23.66h250v250H24.82V23.66Z"/>
  <path class="cls-2" d="m151.26,36.04c-46.57,0-84.33,37.76-84.33,84.33s37.75,84.33,84.33,84.33,84.33-37.76,84.33-84.33c0-46.57-37.75-84.33-84.33-84.33h0Zm7.94,160.21c26.69-7.29,47.09-34.78,49.82-68.62.08-1.62.36-6.14.34-7.36-14.18,1.87-29.19,3.79-43.91,3.89-10.89,0-33.6-6.63-33.6-6.63l.47,9.47s12.78,5.68,36.91,6.15c12.62.25,23.01-1.32,30.08-2.86-3.41,32.7-23.33,59.08-49.3,66.32-41.56-.66-75.07-34.51-75.07-76.24s33.53-75.6,75.12-76.24c24.7,6.91,43.94,31.14,48.67,61.65l9.44-.53c-4.41-28.34-21.32-51.27-43.5-59.92,35.72,6.36,62.86,37.5,62.86,75.04,0,39.46-29.95,71.91-68.35,75.88h0Zm-65.15,39.73s.73,23.91-.53,24.23c-1.26.32-11.89,1.07-13.52,1.07-2.71,0-5.08-.62-7.1-1.85-2.02-1.23-3.69-2.93-5.01-5.08-1.32-2.15-2.29-4.6-2.91-7.33-.62-2.79-.93-5.65-.93-8.51,0-3.38.34-6.44,1.01-9.17.68-2.74,1.69-5.09,3.05-7.08,1.36-1.98,3.03-3.51,5.02-4.58,2-1.07,4.28-1.6,6.86-1.6,2.32,0,6.66-.83,12.58.83l-.23,9.47c-4.97-1.66-8.45-1.08-11.24-1.08-3.23,0-5.64,1.3-7.2,3.91-1.57,2.61-2.36,6.06-2.36,10.34,0,2.53.29,4.88.88,7.04s1.55,3.93,2.9,5.31c1.35,1.38,3.12,2.07,5.3,2.07.93,0,1.89-.18,2.89-.53.99-.35,2.26-.16,2.91-.8l-.24-10.41h-3.52l.24-6.25h11.15Zm1.5,24.23v-43.01h24.8v8.75h-16.96v8.52h16.88v8.43h-16.88v9.27h16.83v8.03h-24.66Zm26.51,0v-43.01h25.13v8.75h-17.3v9.27h17.27v8.42h-17.27v16.56h-7.83Zm26.51,0v-43.01h25.14v8.75h-17.3v9.27h17.27v8.42h-17.27v16.56h-7.84Zm26.51,0v-43.01h24.8v8.75h-16.97v8.52h16.88v8.43h-16.88v9.27h16.82v8.03h-24.66,0Zm56.35-43.01v43.01h-9.83l-12.53-32.8h-.11v32.8h-7.48v-43.01h11.63l10.77,28.93h.09v-28.93h7.48Zm-9.14-26.08c.74.45,1.33,1.09,1.77,1.92.44.83.66,1.75.66,2.68,0,.91-.21,1.78-.62,2.61s-1,1.48-1.75,1.96c-.71.47-1.54.72-2.39.72-.82,0-1.61-.24-2.37-.7-.75-.47-1.36-1.13-1.76-1.92-.43-.82-.65-1.73-.65-2.66,0-.92.22-1.8.65-2.65.39-.79.99-1.46,1.73-1.93.71-.46,1.54-.71,2.39-.71.8,0,1.57.23,2.34.68h0Zm-5.15-.93c-.89.54-1.6,1.31-2.12,2.32-.52.99-.79,2.1-.79,3.22,0,1.09.25,2.15.76,3.16.49.99,1.19,1.77,2.09,2.34.86.56,1.86.85,2.88.85.99,0,1.94-.28,2.85-.84.88-.54,1.58-1.31,2.09-2.3.51-.99.78-2.09.78-3.2,0-1.11-.26-2.17-.78-3.19-.46-.95-1.18-1.75-2.08-2.31-.85-.56-1.85-.85-2.87-.86-.96,0-1.9.27-2.82.82h0Zm1.32,9.05v-2.91h.58c.34,0,.61.08.8.24.26.23.61.75,1.03,1.6l.55,1.08h1.21l-.75-1.34c-.35-.63-.66-1.08-.91-1.35-.15-.16-.32-.28-.52-.36.49-.04.91-.23,1.24-.57.35-.36.52-.82.52-1.36,0-.35-.1-.69-.29-1-.23-.38-.58-.63-1.05-.75-.27-.07-.7-.1-1.29-.1h-2.12v6.84h1.01s0,0,0,0Zm0-5.89h1.12c.48,0,.81.04.99.11.38.16.57.46.57.88,0,.68-.49,1.03-1.49,1.03h-1.2v-2.02h0Z"/>
</svg>