<?xml version="1.0" encoding="UTF-8"?>
<svg id="Layer_1" data-name="Layer 1" xmlns="http://www.w3.org/2000/svg" viewBox="0 0 300 300">
  <path d="m141.27,275.28c-17.55-2.16-29.48-5.57-43.5-12.43C47.3,238.15,19.45,182.63,29.85,127.48c6.28-33.26,25.65-62.6,53.55-81.09,15.51-10.28,30.98-16.32,50.36-19.67,9.09-1.57,27.49-1.69,36.94-.24,30.63,4.71,57.14,19.41,77.25,42.84,28.69,33.43,37.41,80.46,22.7,122.45-10.68,30.48-33.84,56.71-62.6,70.9-9,4.44-26.55,9.99-36.84,11.66-5.01.81-25.74,1.47-29.95.96h0Zm23.18-6.19c19.07-2.57,33.59-7.86,48.19-17.57,32.4-21.54,50.83-50.06,56.06-86.74,3.48-24.39-2.95-53.23-17.12-76.85-6.72-11.2-18.25-24.05-28.01-31.22-20.32-14.93-42.19-22.72-65.9-23.45-19.87-.62-37.5,3.12-53.83,11.41-12.98,6.6-25.1,15.58-25.1,18.61,0,1.36-.33,1.54,5.17-2.93,5.26-4.28,23.18-14.45,30.86-17.52,4.5-1.8,12.65-3.81,20.92-5.17,10.07-1.65,26.58-1.63,35.96.04,20.61,3.67,38.24,11.37,52.3,22.82,5.35,4.36,16.01,15.07,19.68,19.76,12.41,15.9,19.41,34.17,21.89,57.11,4.6,42.58-13.41,82.93-48.6,108.9-20.63,15.22-44.45,22.54-73.31,22.53-10.19,0-16.24-.71-24.82-2.88-5.39-1.37-15.22-4.76-21.02-7.26-1.72-.74-2.68-1-2.14-.57,1.46,1.14,12.38,5.67,18.16,7.52,5.44,1.74,13.46,3.47,19.67,4.22,5.54.68,23.6.23,31-.77h0Zm-6.36-4.14c23.29-3.74,43.2-12.1,58.71-24.66,5.71-4.62,15.39-14.75,19.88-20.8,10.41-14.03,17.66-30.55,21.14-48.2,1.27-6.46,1.39-8.12,1.41-20.08.02-13.87-.23-16.07-3.12-27.21-5.6-21.58-19.33-43.16-36.92-58.02-13.5-11.41-36.99-20.5-58.17-22.53-5.7-.55-7.48-.51-13.55.28-16.49,2.15-26.61,4.45-34.69,7.91-20.86,8.92-43.96,29.02-47.13,41.02-1.11,4.2.07,4.08,2.83-.29,2.75-4.34,10.8-13.92,15.01-17.86,13.4-12.53,31.99-22.25,49.25-25.74,9.44-1.91,14.03-2.28,24.92-2,16.6.43,27.87,3.13,41.06,9.86,37.46,19.11,57.23,52.6,57.37,97.18.03,10.52-.49,14.74-3.09,24.9-4.01,15.7-12.98,33.23-23.36,45.69-4.63,5.55-13.37,13.84-18.33,17.37-25.44,18.12-56.68,26.37-84.63,22.37-11.53-1.65-24.98-5.31-33.65-9.15-1.64-.73-3.07-1.23-3.18-1.11-.4.4,12.64,5.63,18.31,7.34,6.77,2.04,12.13,3.21,19.3,4.22,6.59.92,23.46.65,30.63-.51h0Zm-6.67-2.96c16.99-2.11,36.17-9.49,51.83-19.93,28.27-18.85,46.89-55.15,46.89-91.44,0-9.26-.92-16.59-3.12-24.95-7.21-27.37-27.29-51.05-54.44-64.19-7.83-3.79-10.13-4.61-16.42-5.84l-4.59-.9-1.14-2.34-1.14-2.34-1,1.95c-.71,1.38-1.34,1.95-2.16,1.94-.64,0-4.68-.23-8.97-.5-8.73-.54-14.8,0-26.18,2.36-13.87,2.86-24.04,7.52-36.16,16.54-9.34,6.96-14.74,12.65-21.39,22.55-5.4,8.03-8.41,14.23-8.45,17.37-.04,3.08.86,3.3,2.09.51,2.12-4.79,7.33-13.43,11.11-18.39,5.9-7.76,14.96-16.63,21.16-20.72,12.3-8.12,22.84-12.58,36.27-15.34,6.07-1.24,8.22-1.43,16.61-1.46,5.3-.02,10.52.15,11.59.38l1.95.41-1.26,2.48-1.26,2.48-4.86-.46c-10.72-1.01-22.11.41-32.81,4.08-6.53,2.24-17.43,7.54-23.11,11.24-5.09,3.32-16.75,14.9-21.73,21.6-8.87,11.92-14.68,28.57-11.55,33.06,1.06,1.52,1.55.87,2.04-2.73.88-6.39,5.82-17.4,12.1-26.94,3.49-5.3,13.48-15.44,20.17-20.47,14.62-10.99,35.92-17.28,53.53-15.81l4.47.37-.97,2.17-.97,2.17-8.49.05c-7.12.04-9.42.27-14.22,1.38-10.23,2.37-21.27,7.08-29.78,12.71-5.06,3.35-13.44,11.44-17.49,16.89-5.84,7.85-11.3,18.98-13.41,27.34-1.48,5.85-1.46,14.24.04,17.36.6,1.24,1.27,2.25,1.49,2.25s.57-2.4.77-5.34c.81-11.71,3.34-19.95,9.16-29.82,7.6-12.88,19.28-24,31.92-30.37,2.77-1.4,3.52-2.01,3.27-2.67-.39-1.01-1.03-1.52,7.65,6.08,6.55,5.73,6.22,5.21,7.94,12.69,1.12,4.87,2.86,16.37,2.87,18.98,0,1.39-1.07,4.96-3.03,10.03-1.67,4.33-3.16,8-3.31,8.15s-.44-2.49-.64-5.86c-.53-8.91-2.51-22.89-3.51-24.78-.27-.5-.88-.91-1.38-.91-3.53.02-14.1,9.81-18.83,17.44-5.73,9.24-7.93,16.52-7.91,26.15.02,9.93,1.89,17.93,5.4,23.07,2.06,3.03,4.2,4.26,7.39,4.26,9.28,0,16.91-12.56,18.64-30.68l.61-6.43,3.59-2.1c1.97-1.15,3.71-1.98,3.86-1.83.46.46-.83,10.81-1.92,15.38-2.37,9.94-8.58,19.8-15.3,24.29-2.76,1.84-1.62,1.73,1.27-.13,5.18-3.32,10.26-10.3,13.77-18.93,2.42-5.95,3.28-9.58,3.86-16.29.27-3.12.7-5.89.97-6.15.99-.99,7.41-4.52,7.6-4.18.11.19,0,2.23-.26,4.53-1.87,16.93-12.28,34.5-24.99,42.16-1.83,1.1-2.73,1.84-2.02,1.63,2.45-.69,7.46-4.08,11.11-7.51,4.99-4.69,9.21-10.53,12.6-17.44,3.41-6.94,5.29-13.28,6.05-20.39.31-2.88.71-5.3.9-5.38.18-.08,1.62-.94,3.2-1.93,3.68-2.29,4.02-1.81,3.17,4.36-.79,5.74-2.94,12.15-6.32,18.9-6.85,13.67-15.46,23.17-25.75,28.4-2.58,1.31-4.1,2.22-3.39,2.03.72-.2,2.94-1.18,4.95-2.19,17.96-9,32.4-30.65,34.01-50.97.36-4.54.41-4.69,2.03-5.64,1.59-.93,1.73-.93,3.05-.06,1.36.89,1.38.98,1.02,4.86-1.26,13.55-8.96,28.64-20.53,40.26-4.63,4.65-9.31,7.8-17.39,11.71-6.29,3.04-6.7,3.64-1.04,1.51,8.54-3.22,15.57-7.97,22.86-15.45,10.77-11.06,16.87-22.56,20.24-38.13l.31-1.45,2.33,1.61c1.28.88,2.33,1.71,2.33,1.84s-.72,2.52-1.61,5.32c-3.58,11.33-9.44,20.88-18.53,30.19-7.07,7.23-14.07,11.74-25.17,16.2-3.31,1.33-3.91,1.7-2.36,1.46,2.93-.46,11.35-3.65,15.37-5.82,14.17-7.64,27.95-23.92,34.14-40.32.81-2.15,1.64-4.11,1.84-4.35s1.32.17,2.49.91l2.13,1.34-2.35,5.09c-1.29,2.8-3.1,6.34-4.02,7.88-4.43,7.41-17.3,20.74-24.91,25.78-5,3.32-11.52,6.52-17.87,8.77-5.02,1.78-2.35,1.48,3.6-.41,4.89-1.56,12.27-5.16,19.09-9.33,9.12-5.58,22.16-20.04,28.06-31.13,1.18-2.22,2.31-4.04,2.51-4.04.19,0,1.03.55,1.87,1.21l1.51,1.21-1.96,3.35c-2.81,4.8-9.76,13.58-14.61,18.46-10.76,10.82-21,16.92-35.58,21.19-2.09.61-3.73,1.19-3.64,1.28.35.35,8.15-1.39,12.12-2.7,17.6-5.83,32.94-17.94,43.84-34.61,2.81-4.3,4.36-5.73,4.36-4.02,0,.37-1.06,2.4-2.36,4.51-7.04,11.44-18.27,22.46-29.73,29.18-10.36,6.08-24.96,9.96-37.46,9.96-8.75,0-19.84-2.66-28.25-6.79-12.67-6.22-24.93-18.79-31.83-32.62-6.46-12.96-9.85-30.38-8.47-43.56,2.04-19.53,9.51-34.63,24.09-48.71,5.1-4.93,13.62-11.67,15.69-12.41.35-.13.47-.41.27-.63-.53-.57-6.68,3.24-11.71,7.24-7.54,6.01-17.52,18.42-22.56,28.07-3.02,5.78-6.71,16.53-8.39,24.47-2.19,10.33-1.36,24.68,2.17,37.24,7.59,27.05,27.24,46.06,52.85,51.11,8.22,1.62,22.7.6,33.5-2.36,4.71-1.29,16.17-6.7,21.57-10.17,15.5-9.98,28.19-25.06,35.1-41.7,2.69-6.49,4.91-12.42,4.87-13.04-.02-.29-.69,1.15-1.49,3.19-1.96,4.98-6.36,14.96-6.84,15.51-.21.24-.54-.03-.73-.62-.22-.69.29-2.3,1.45-4.62,6.09-12.15,10.27-28.79,10.57-42.11.17-7.62.2-7.81,1.57-9.24,1.43-1.49,2.28-1.54,2.28-.11,0,.44,1.49,2.24,3.3,4.01,11.18,10.86,21.11,30.98,24.83,50.28,3.27,16.96.93,37.95-6.3,56.53-5.53,14.21-15.12,28.52-25.78,38.48-4.93,4.61-14.87,12.21-20.74,15.86-10.78,6.7-23.72,11.27-39.7,14.01-9.92,1.7-27.53,1.71-36.42.01-3.44-.66-6.84-1.3-7.55-1.44-1.25-.24-1.25-.23-.15.26,2.42,1.07,14.19,3.27,19.68,3.67,6.38.47,16.57.22,22.92-.57h0Zm46.9-136.02l-.94-3.11,1.39-5.12c2.32-8.56,2.95-12.15,3.26-18.68l.3-6.26,2.66-2.74c1.46-1.51,2.84-2.74,3.07-2.74.72,0,.44,10.68-.4,15.2-1.42,7.66-6.62,24.6-8.02,26.15-.2.22-.79-.99-1.31-2.71h0Zm-55.16-12.92c-.16-.81-.44-3-.63-4.86-.19-1.86-.67-5.25-1.06-7.53-.39-2.28-.61-4.24-.49-4.36.13-.13,1.86,1.22,3.85,2.99l3.62,3.22-2.34,5.84c-1.29,3.21-2.41,5.92-2.5,6.01-.09.09-.29-.49-.44-1.3h0Zm50.49-3.04c-.77-2.58-1.6-5.32-1.85-6.09-.4-1.26-.16-1.67,2.51-4.17l2.95-2.78.16,3.29c.15,3.1-.96,10.67-1.93,13.27-.37.98-.68.38-1.84-3.52h0Zm-61.9-31.57c3.23-1.3,12.54-2.6,18.66-2.6,3.57,0,6.49.1,6.49.23s-.23.83-.51,1.56l-.51,1.34-12.65-.03c-8-.02-12.22-.2-11.49-.5h0Zm50.98.14c-.52-.52-3.95-7.97-3.95-8.58s1.19-.25,6.68,1.96c3.81,1.53,12.07,6.18,12.07,6.8,0,.4-14.4.24-14.8-.17Zm19.36-1.2c-5.52-4.55-13.77-8.72-23.78-12-2.03-.67-2.43-1.07-3.52-3.55l-1.23-2.81,2.09.33c3.97.64,14.71,4.49,20.26,7.27,6.2,3.11,12.13,6.96,15.68,10.18l2.34,2.13-4.96.02c-4.78.02-5.03-.04-6.89-1.57h0Zm-57.17,181.3c12.97-1.38,23.11-4.2,33.71-9.4,11.72-5.74,23.31-13.99,32.19-22.93,14.86-14.95,24.38-32.65,28.67-53.36,1.85-8.93,2.32-23.07,1.07-31.95-2.58-18.31-10.36-36.72-19.74-46.69l-2.94-3.12-.02,2.24c-.02,1.95.44,2.88,3.61,7.3,11.49,16.02,16.16,31.19,16.16,52.49s-7.73,43.71-21.55,62.23c-14.42,19.31-37.82,34.75-61.02,40.27-14.36,3.42-31.81,3.51-45.84.24-9.11-2.12-18.96-5.39-26.48-8.77-1.67-.75-2.9-1.15-2.74-.89.5.8,12.34,5.62,18.63,7.57,16.45,5.12,29.93,6.5,46.28,4.77h0Zm-3.91-2.42c10.35-1.25,22.93-5.25,33.6-10.69,17.8-9.06,30.93-20.95,42.3-38.29,8.14-12.41,14.21-28.64,15.24-40.68.16-1.86.4-4.77.54-6.46.41-4.96-.72-18.33-2.14-25.3-2.23-10.97-6.02-20.08-11.2-26.95l-2.28-3.02-.36,2.04c-.64,3.63-.45,4.82,1.17,7.22,9.38,13.91,12.97,40.89,8.21,61.59-5.52,23.99-21.9,47.63-42.49,61.33-12.29,8.17-25.13,13.84-38.49,16.98-5.78,1.36-6.95,1.46-17.65,1.46-9.91,0-12.31-.16-17.71-1.22-8.41-1.64-20.46-5.66-28.39-9.46-3.58-1.71-6.04-2.75-5.47-2.29,2.2,1.74,12.77,6.54,18.75,8.52,6.92,2.29,17.04,4.54,23.44,5.21,6.19.65,17.59.65,22.92,0h0Zm2.03-3.53c15.22-3.31,30.99-11.09,44.6-22,16.03-12.85,28.85-33.28,34.21-54.48,3.14-12.45,1.87-34.87-2.71-47.72-1.32-3.7-3.79-8.34-4.45-8.34-.17,0-.79,2.26-1.38,5.01-1.07,5-1.07,5.02-.05,7.33,1.8,4.08,3.5,11.97,4.1,19.03,2,23.57-6.88,48.74-24.53,69.58-7.29,8.6-18.52,17.35-29.46,22.93-12.93,6.61-26.92,9.65-40.96,8.91-18.43-.97-36.53-6.24-50.64-14.73l-2.12-1.28,1.5,1.27c1.99,1.69,9.46,5.59,14.65,7.66,8.25,3.28,18.42,6.01,28.13,7.54,7.08,1.12,22.45.75,29.12-.71h0Zm-4.88-2.61c19.88-3.6,39.06-15.36,54.15-33.19,9.68-11.44,16.49-25.65,19.9-41.47.98-4.57,1.18-7.07,1.18-15.13,0-8.49-.14-10.16-1.2-13.92-2.01-7.16-2.1-7.12-4.95,2.64l-2.52,8.6.5,5.38c1.36,14.67-3.09,30.19-13.02,45.4-4.26,6.52-8.57,11.63-15.22,18.03-11.68,11.24-25.9,19.07-40.43,22.26-5.38,1.18-18.89,1.62-25.3.82-13.04-1.62-28.68-7.12-42.39-14.9-4.1-2.32-3.59-1.69,1.04,1.31,10.82,6.99,27.6,12.97,40.9,14.57,2.58.31,5.39.66,6.25.78,3.34.46,15.89-.25,21.11-1.2Zm-4.41-3.25c12.46-2.36,24.29-7.78,34.9-15.99,6.16-4.77,14.55-13.63,18.51-19.56,8.41-12.6,14.33-28.83,13.92-38.22l-.16-3.62-1,2.35c-2.6,6.09-8.52,17.13-12.2,22.74-21.69,33.09-50.83,49.26-83.96,46.57-15.72-1.28-32.62-7.59-44.71-16.72-4.28-3.23-3.77-1.99.78,1.92,6.9,5.92,14.25,10.52,22.38,13.99,17.25,7.38,35.14,9.65,51.54,6.55h0Zm-5.5-15.75c7.43-1.78,11.28-3.12,17.62-6.13,20.79-9.89,39.75-29.88,51.66-54.48,2.79-5.77,5.88-13.32,5.58-13.63-.11-.11-1.44,2.44-2.96,5.67-8.36,17.79-16.43,29.49-28.87,41.86-11.72,11.66-22.04,18.34-34.96,22.64-8.9,2.96-14.59,3.88-24.23,3.89-9.12.01-14.71-.82-22.78-3.38-30.22-9.6-48.41-33.58-53.57-70.63-1.54-11.02-.59-27.1,2.37-40.41,2.84-12.76,9.83-29.21,17.23-40.56.61-.93.96-1.69.78-1.69-.64,0-6.2,9.06-9.38,15.3-10.51,20.6-15.19,42.75-13.35,63.2,2.33,25.96,12.48,48.35,27.79,61.31,7.94,6.72,18.49,12.94,26.16,15.43,8.16,2.64,13.55,3.31,25.01,3.1,8.89-.16,11.22-.38,15.89-1.5h0Zm-5.16-7.9c29.51-3.67,51.41-20.65,73.01-56.63,3.68-6.14,9.51-17.21,9.06-17.21-.11,0-1.44,2.17-2.94,4.82-11.31,19.98-27.57,40.51-39.44,49.79-11.93,9.33-25.82,15.43-39.41,17.32-5.78.8-16.1.7-21.36-.22-19.53-3.41-35.68-14.08-46.95-31.03-8.22-12.36-12.71-25.07-14.26-40.42-.81-8.03-.32-25.19.94-32.34,2.97-16.94,9.34-31.99,20.44-48.36,2.87-4.23,2.07-3.76-1.32.77-5.91,7.92-13.39,21.72-16.45,30.39-8.12,22.97-8.5,48.07-1.07,70.71,6.82,20.8,19.94,36.5,38.33,45.87,12.41,6.33,25.95,8.46,41.43,6.54h0Zm-.16-8.15c18.95-2.08,37.8-12.27,54.04-29.23,10.68-11.15,23.13-28.43,27.69-38.44,2.47-5.42,2.13-5.32-.82.25-7.18,13.55-25.16,35.35-38.08,46.18-15.81,13.26-31.14,19.24-49.49,19.31-19.66.07-34.55-5.83-47.43-18.83-15.84-15.98-23.73-37.3-24.24-65.52-.2-10.99.18-14.67,2.37-23.21,2.74-10.64,10.25-26.52,17.28-36.51,6.86-9.75,6.98-10.73.23-1.83-15.62,20.59-23.99,46.95-22.19,69.84,3.2,40.67,23.43,68.52,55.34,76.2,8.94,2.15,16.88,2.72,25.3,1.79h0Zm5.27-8.12c24.57-4.1,47.54-20.64,67.63-48.7,5.68-7.93,12.15-19.7,12.12-22.04,0-.36-1.04,1.64-2.31,4.44-5.24,11.6-12.67,21.58-25.38,34.1-8.61,8.47-12.6,11.82-19.66,16.49-10,6.6-20.16,10.88-30.7,12.93-6.53,1.27-18.85,1.41-24.7.29-29.26-5.6-50.52-32.05-55.84-69.48-1-7.04-.75-22.49.46-28.1,3.22-14.99,10.55-30.28,21.29-44.44,5.19-6.84,5.7-7.64,3.77-5.89-3.18,2.87-11.95,15.08-15.79,21.98-2.59,4.67-6.73,14.14-8.71,19.93-9.29,27.21-2.31,63.57,16.68,86.92,9.39,11.55,26.28,20.58,41.91,22.42,4.89.57,12.84.23,19.22-.84h0Zm6.04-8c10.12-2.31,20.23-6.51,27.52-11.44,8.33-5.63,23.64-19.02,29.07-25.43,5.54-6.55,13.57-19.85,16.59-27.51.89-2.26,1.54-4.19,1.43-4.3-.1-.1-1.28,2.33-2.62,5.41-9.73,22.42-29.14,42.35-52.18,53.56-13.34,6.5-19.16,7.83-34.14,7.84-8.72,0-11.4-.17-14.59-.97-11.23-2.81-21.6-9.2-30.79-18.98-14.5-15.43-21.97-37.73-21.16-63.18.41-13,2.72-21.09,10.22-35.89,4.08-8.05,7.71-13.7,13.49-21.01,2.47-3.12,3.2-4.28,1.97-3.13-1.07,1-3.38,3.59-5.12,5.74-10.68,13.2-18.77,29.98-22.54,46.76-1.27,5.66-1.36,6.79-1.06,13.33,1.17,25.47,8.61,45.8,22.13,60.5,9.59,10.43,22.7,17.54,36.32,19.69,5.13.81,20.07.22,25.45-1.01h0Zm4.43-6.74c6.24-1.26,10.21-2.76,18.59-7.04,12.14-6.2,20.21-12.06,28.85-20.99,7.29-7.53,13.94-17.04,17.4-24.86,2.13-4.82,1.07-3.41-2.11,2.81-4.76,9.31-11.7,17.81-21.67,26.51-10.19,8.9-27.56,17.52-40.55,20.13-5.75,1.15-17.67,1.58-22.88.81-16.64-2.44-31.89-11.69-42.2-25.6-3.59-4.85-9.02-15.53-11.41-22.46-2.08-6.03-4.14-15.41-4.62-21.11-.85-9.96.6-24.25,3.25-32.06,3.92-11.55,13.04-26.56,21.62-35.61,2.94-3.1,5.18-5.78,4.99-5.98-.92-.92-14.09,14.83-18.27,21.84-12.76,21.45-17.02,38.4-14.32,56.91,3.13,21.43,10.08,36.53,22.64,49.21,9.9,10,20.41,15.81,32.9,18.19,5.62,1.07,20.92.68,27.8-.71h0Zm-35.93-23.67c-1.2-2.59-2.22-5.79-2.57-8.05-.84-5.56-.71-16.72.25-21.44,1.06-5.17,4.2-13.19,7.03-17.96,4.19-7.05,14.67-16.6,20.58-18.74,1.98-.72,2.09-1.19,1.07-4.61-.43-1.44-1.05-2.42-1.6-2.52-2.03-.4-15.22,8.99-19.81,14.1-6.67,7.42-12.12,18.4-13.8,27.81-.98,5.45-1.23,13.82-.57,18.77.93,6.98,2.28,10.51,5.11,13.42,2.35,2.41,5.2,4.21,5.94,3.76.21-.13-.52-2.16-1.62-4.53h0Zm-13.22-7.82c-.17-.93-.46-4.87-.66-8.76-.42-8.35.22-13.64,2.5-20.84,5.61-17.65,17.23-31.64,31.81-38.3l3.93-1.79-.86-2.38c-.47-1.31-1.16-2.38-1.52-2.38s-2.48.91-4.69,2.03c-14.18,7.16-26.37,20.6-32.59,35.93-2.9,7.16-3.69,11.66-3.71,21.24-.02,10,.36,11.75,3.23,14.93,2.23,2.48,2.96,2.57,2.56.32h0Zm116.84-27.77c0-.29-.34.07-.74.78-.41.72-.74,1.54-.74,1.83s.34-.07.74-.78.74-1.54.74-1.83Z"/>
</svg>