<?xml version="1.0" encoding="UTF-8"?>
<svg id="Layer_1" data-name="Layer 1" xmlns="http://www.w3.org/2000/svg" viewBox="0 0 300 300">
  <defs>
    <style>
      .cls-1 {
        fill: #c52b2d;
      }

      .cls-1, .cls-2, .cls-3 {
        fill-rule: evenodd;
      }

      .cls-2 {
        fill: #fff;
      }

      .cls-3 {
        fill: #4595d1;
      }
    </style>
  </defs>
  <path class="cls-2" d="m25,25h250v250H25V25Z"/>
  <path class="cls-3" d="m82.24,205.74c-4.13-13.95,1.77-28.48,1.77-28.48l40.47-102.93h-37.52l-34.77,87.41s-10.8,23.57-4.13,44c5.7,14.54,25.14,21.41,44.2,11.79-4.12-2.95-8.25-7.27-10.02-11.79Z"/>
  <path class="cls-3" d="m88.33,204.37c1.96,3.93,5.11,7.66,9.04,10.41,0,0,16.5-7.86,27.5-34.77l42.82-105.68h-37.52l-34.77,87.41c-6.09,16.11-11.98,30.25-7.07,42.63Z"/>
  <path class="cls-1" d="m216.79,74.33l-35.36,87.61s-7.86,25.54-22.79,44c-3.34,3.93-20.43,19.64-33,19.64,0,0,40.27,1.96,60.11-12.37,11.2-8.06,19.25-18.46,25.73-32.8l42.63-106.07h-37.32s0,0,0,0Z"/>
  <path class="cls-1" d="m168.28,180.21l42.62-105.88h-37.71l-34.77,87.61s-10.8,33.59-25.73,46.75c-3.73,3.34-17.48,16.89-30.05,16.7,0,0,40.27,2.16,60.11-12.37,11.2-7.86,19.25-18.46,25.54-32.8h0Z"/>
</svg>