<?xml version="1.0" encoding="UTF-8"?>
<svg id="Layer_1" data-name="Layer 1" xmlns="http://www.w3.org/2000/svg" viewBox="0 0 300 300">
  <defs>
    <style>
      .cls-1 {
        fill: #fff;
      }

      .cls-2 {
        fill: #1563a8;
      }
    </style>
  </defs>
  <path class="cls-2" d="m150,275c-60.45,0-91.87-14.35-110.66-48.18-10.59-19.49-14.34-54.39-14.34-76.82s3.76-57.33,14.34-76.82c18.78-33.84,50.21-48.18,110.66-48.18s91.87,14.35,110.65,48.18c10.59,19.49,14.35,54.39,14.35,76.82s-3.75,57.33-14.35,76.82c-18.78,33.83-50.2,48.18-110.65,48.18"/>
  <path class="cls-1" d="m218.12,161.46c-6.83,0-16.74-3.31-21.51-15.08l-7.35-19.14c-6.49-17.65,6.14-34.2,20.83-34.2,6.83,0,16.73,3.32,21.52,15.08l7.35,19.15c6.49,17.65-6.15,34.2-20.84,34.2m-37.74,59.19c-6.84,0-16.74-3.31-21.52-15.08l-30.06-78.33c-6.49-17.65,6.15-34.2,20.83-34.2,6.83,0,16.74,3.32,21.51,15.08l30.05,78.33c6.49,17.66-6.15,34.21-20.83,34.21m-60.45,0c-6.83,0-16.73-3.31-21.52-15.08l-30.05-78.33c-6.49-17.65,6.15-34.2,20.83-34.2,6.84,0,16.74,3.32,21.52,15.08l30.05,78.33c6.49,17.66-6.15,34.21-20.83,34.21"/>
</svg>